<svg width="80" height="66" viewBox="0 0 80 66" fill="none" xmlns="http://www.w3.org/2000/svg">
<g clip-path="url(#clip0)">
<path d="M70.2992 -0.0642167C68.1366 -0.0962609 63.1129 0.639125 54.7252 6.26213C50.1538 5.11774 45.2899 4.55302 40.4176 4.55302C35.0567 4.55302 29.6392 5.23489 24.587 6.6231C12.5447 -1.60573 7.22937 0.0806023 7.22937 0.0806023C3.7593 8.77255 5.90364 15.2078 6.5554 16.806C2.47683 21.2151 -0.013031 26.8453 -0.013031 33.7457C-0.013031 38.9551 0.57891 43.6276 2.02511 47.6894C2.10532 48.0028 2.07932 47.9329 2.21445 48.2013C2.53306 49.0421 2.88732 49.8583 3.28548 50.6466C3.42192 50.9302 3.54611 51.1401 3.54611 51.1401C7.61151 58.7307 15.6257 63.634 29.885 65.1736L51.4512 65.198C66.6581 63.6876 73.9551 58.7697 77.3177 51.1279L77.5315 50.6302C77.8501 49.8583 78.1279 49.0551 78.8876 46.3515C79.6472 43.6478 79.9871 38.9655 79.9871 33.7436C79.9871 26.2543 77.1789 20.2617 72.6185 15.7026C73.4154 13.1261 74.48 7.40391 71.5556 0.0785138C71.5556 0.0785138 71.1456 -0.0516862 70.2993 -0.064282L70.2992 -0.0642167ZM53.304 27.4193C56.8154 27.4116 59.8233 28.0155 62.0816 30.3887V30.3907C64.9073 33.3629 66.561 36.9513 66.561 40.8183C66.561 58.8739 54.9677 59.365 40.6681 59.365C26.366 59.365 14.7751 56.8631 14.7751 40.8183C14.7751 36.9769 16.4046 33.4099 19.1955 30.4498C23.851 25.5166 31.7292 28.1289 40.6681 28.1289C45.2566 28.1282 49.5661 27.4274 53.3041 27.4192L53.304 27.4193ZM26.6678 32.7361C23.6924 32.7361 21.2803 36.7655 21.2803 41.7383C21.2803 46.7117 23.6923 50.7424 26.6678 50.7424C29.6432 50.7424 32.0554 46.7117 32.0554 41.7383C32.0554 36.7663 29.6434 32.7397 26.6678 32.7361ZM55.5742 32.7361C52.5988 32.7361 50.1866 36.7655 50.1866 41.7383C50.1866 46.7117 52.5986 50.7424 55.5742 50.7424C58.5496 50.7424 60.9617 46.7117 60.9617 41.7383C60.9617 36.7663 58.5497 32.7397 55.5742 32.7361Z" fill="black"/>
</g>
<defs>
<clipPath id="clip0">
<rect width="80" height="65.2632" fill="white"/>
</clipPath>
</defs>
</svg>
